<svg width="539" height="268" viewBox="0 0 539 268" fill="none" xmlns="http://www.w3.org/2000/svg">
<path d="M377.031 206.256V60.8011H416.52V119.608H418.509L462.259 60.8011H508.281L459.134 125.574L509.418 206.256H462.259L429.588 151.71L416.52 168.756V206.256H377.031Z" fill="#EFC862"/>
<g filter="url(#filter0_d_27_9)">
<path d="M396.741 133.528C396.741 149.722 393.592 163.382 387.295 174.508C380.998 185.588 372.499 193.992 361.798 199.722C351.097 205.403 339.165 208.244 326.002 208.244C312.745 208.244 300.766 205.38 290.065 199.651C279.412 193.874 270.936 185.446 264.639 174.366C258.389 163.24 255.264 149.627 255.264 133.528C255.264 117.335 258.389 103.699 264.639 92.6193C270.936 81.4924 279.412 73.088 290.065 67.4062C300.766 61.677 312.745 58.8124 326.002 58.8124C339.165 58.8124 351.097 61.677 361.798 67.4062C372.499 73.088 380.998 81.4924 387.295 92.6193C393.592 103.699 396.741 117.335 396.741 133.528ZM356.116 133.528C356.116 124.816 354.956 117.477 352.636 111.511C350.363 105.498 346.978 100.953 342.48 97.8749C338.029 94.7499 332.537 93.1874 326.002 93.1874C319.468 93.1874 313.952 94.7499 309.454 97.8749C305.003 100.953 301.618 105.498 299.298 111.511C297.025 117.477 295.889 124.816 295.889 133.528C295.889 142.24 297.025 149.603 299.298 155.616C301.618 161.582 305.003 166.128 309.454 169.253C313.952 172.33 319.468 173.869 326.002 173.869C332.537 173.869 338.029 172.33 342.48 169.253C346.978 166.128 350.363 161.582 352.636 155.616C354.956 149.603 356.116 142.24 356.116 133.528Z" fill="#4F474E"/>
</g>
<g filter="url(#filter1_d_27_9)">
<path d="M283.647 133.528C283.647 149.722 280.499 163.382 274.201 174.508C267.904 185.588 259.405 193.992 248.704 199.722C238.003 205.403 226.072 208.244 212.909 208.244C199.651 208.244 187.672 205.38 176.971 199.651C166.318 193.874 157.842 185.446 151.545 174.366C145.295 163.24 142.17 149.627 142.17 133.528C142.17 117.335 145.295 103.699 151.545 92.6193C157.842 81.4924 166.318 73.088 176.971 67.4062C187.672 61.677 199.651 58.8124 212.909 58.8124C226.072 58.8124 238.003 61.677 248.704 67.4062C259.405 73.088 267.904 81.4924 274.201 92.6193C280.499 103.699 283.647 117.335 283.647 133.528ZM243.022 133.528C243.022 124.816 241.862 117.477 239.542 111.511C237.27 105.498 233.884 100.953 229.386 97.8749C224.935 94.7499 219.443 93.1874 212.909 93.1874C206.375 93.1874 200.859 94.7499 196.36 97.8749C191.91 100.953 188.524 105.498 186.204 111.511C183.931 117.477 182.795 124.816 182.795 133.528C182.795 142.24 183.931 149.603 186.204 155.616C188.524 161.582 191.91 166.128 196.36 169.253C200.859 172.33 206.375 173.869 212.909 173.869C219.443 173.869 224.935 172.33 229.386 169.253C233.884 166.128 237.27 161.582 239.542 155.616C241.862 149.603 243.022 142.24 243.022 133.528Z" fill="#4F474E"/>
</g>
<g filter="url(#filter2_d_27_9)">
<path d="M42.4375 206.256V60.8011H105.506C116.585 60.8011 125.889 62.2925 133.418 65.2755C140.993 68.2585 146.699 72.4725 150.534 77.9175C154.417 83.3626 156.358 89.7783 156.358 97.1647C156.358 102.515 155.174 107.392 152.807 111.795C150.487 116.199 147.22 119.892 143.006 122.875C138.792 125.811 133.867 127.847 128.233 128.983V130.403C134.483 130.64 140.165 132.226 145.278 135.162C150.392 138.05 154.464 142.051 157.494 147.165C160.525 152.231 162.04 158.197 162.04 165.062C162.04 173.017 159.956 180.096 155.79 186.298C151.67 192.501 145.799 197.378 138.176 200.929C130.553 204.48 121.462 206.256 110.903 206.256H42.4375ZM81.9261 174.722H100.392C107.021 174.722 111.992 173.49 115.307 171.028C118.621 168.519 120.278 164.826 120.278 159.949C120.278 156.54 119.497 153.651 117.935 151.284C116.372 148.917 114.147 147.117 111.259 145.886C108.418 144.655 104.985 144.04 100.96 144.04H81.9261V174.722ZM81.9261 119.608H98.1193C101.576 119.608 104.63 119.063 107.281 117.974C109.933 116.885 111.992 115.323 113.46 113.287C114.975 111.204 115.733 108.67 115.733 105.687C115.733 101.189 114.123 97.7566 110.903 95.3891C107.684 92.9744 103.612 91.767 98.6875 91.767H81.9261V119.608Z" fill="#EFC862"/>
</g>
<defs>
<filter id="filter0_d_27_9" x="255.264" y="45.8124" width="176.477" height="179.432" filterUnits="userSpaceOnUse" color-interpolation-filters="sRGB">
<feFlood flood-opacity="0" result="BackgroundImageFix"/>
<feColorMatrix in="SourceAlpha" type="matrix" values="0 0 0 0 0 0 0 0 0 0 0 0 0 0 0 0 0 0 127 0" result="hardAlpha"/>
<feOffset dx="20" dy="2"/>
<feGaussianBlur stdDeviation="7.5"/>
<feComposite in2="hardAlpha" operator="out"/>
<feColorMatrix type="matrix" values="0 0 0 0 0 0 0 0 0 0 0 0 0 0 0 0 0 0 0.5 0"/>
<feBlend mode="normal" in2="BackgroundImageFix" result="effect1_dropShadow_27_9"/>
<feBlend mode="normal" in="SourceGraphic" in2="effect1_dropShadow_27_9" result="shape"/>
</filter>
<filter id="filter1_d_27_9" x="142.17" y="45.8124" width="176.477" height="179.432" filterUnits="userSpaceOnUse" color-interpolation-filters="sRGB">
<feFlood flood-opacity="0" result="BackgroundImageFix"/>
<feColorMatrix in="SourceAlpha" type="matrix" values="0 0 0 0 0 0 0 0 0 0 0 0 0 0 0 0 0 0 127 0" result="hardAlpha"/>
<feOffset dx="20" dy="2"/>
<feGaussianBlur stdDeviation="7.5"/>
<feComposite in2="hardAlpha" operator="out"/>
<feColorMatrix type="matrix" values="0 0 0 0 0 0 0 0 0 0 0 0 0 0 0 0 0 0 0.5 0"/>
<feBlend mode="normal" in2="BackgroundImageFix" result="effect1_dropShadow_27_9"/>
<feBlend mode="normal" in="SourceGraphic" in2="effect1_dropShadow_27_9" result="shape"/>
</filter>
<filter id="filter2_d_27_9" x="42.4375" y="47.8011" width="154.602" height="175.455" filterUnits="userSpaceOnUse" color-interpolation-filters="sRGB">
<feFlood flood-opacity="0" result="BackgroundImageFix"/>
<feColorMatrix in="SourceAlpha" type="matrix" values="0 0 0 0 0 0 0 0 0 0 0 0 0 0 0 0 0 0 127 0" result="hardAlpha"/>
<feOffset dx="20" dy="2"/>
<feGaussianBlur stdDeviation="7.5"/>
<feComposite in2="hardAlpha" operator="out"/>
<feColorMatrix type="matrix" values="0 0 0 0 0 0 0 0 0 0 0 0 0 0 0 0 0 0 0.5 0"/>
<feBlend mode="normal" in2="BackgroundImageFix" result="effect1_dropShadow_27_9"/>
<feBlend mode="normal" in="SourceGraphic" in2="effect1_dropShadow_27_9" result="shape"/>
</filter>
</defs>
</svg>
