<svg width="90" height="60" viewBox="0 0 90 60" fill="none" xmlns="http://www.w3.org/2000/svg">
<path d="M26.25 0C18 0 11.25 6.75 11.25 15C11.25 23.25 18 30 26.25 30C34.5 30 41.25 23.25 41.25 15C41.25 6.75 34.5 0 26.25 0ZM26.25 22.5C22.125 22.5 18.75 19.125 18.75 15C18.75 10.875 22.125 7.5 26.25 7.5C30.375 7.5 33.75 10.875 33.75 15C33.75 19.125 30.375 22.5 26.25 22.5ZM26.25 37.5C11.625 37.5 0 44.25 0 52.5V60H41.25V52.5H7.5C7.5 50.25 14.25 45 26.25 45C33 45 38.25 46.875 41.25 48.75V40.5C37.125 38.625 31.875 37.5 26.25 37.5ZM82.5 0H56.25C52.125 0 48.75 3.375 48.75 7.5V52.5C48.75 56.625 52.125 60 56.25 60H82.5C86.625 60 90 56.625 90 52.5V7.5C90 3.375 86.625 0 82.5 0ZM60 52.5H56.25V7.5H60V52.5ZM82.5 52.5H67.5V7.5H82.5V52.5Z" fill="#EFC862"/>
</svg>
