<svg width="77" height="73" viewBox="0 0 77 73" fill="none" xmlns="http://www.w3.org/2000/svg">
<path d="M4.5 36.5C4.4909 28.8106 7.29472 21.3834 12.383 15.6183C17.4713 9.85322 24.4926 6.1484 32.1236 5.20214C39.7545 4.25588 47.4681 6.13353 53.8104 10.4812C60.1527 14.8289 64.6857 21.3463 66.555 28.805C68.697 29.831 70.524 31.397 71.865 33.332C71.3541 27.5702 69.4624 22.0163 66.3499 17.1406C63.2374 12.265 58.9959 8.21113 53.9844 5.32233C48.973 2.43354 43.3393 0.794871 37.5602 0.545089C31.7812 0.295307 26.0271 1.44176 20.7851 3.88739C15.5431 6.33301 10.9676 10.0058 7.44604 14.5947C3.92448 19.1836 1.56055 24.5535 0.554431 30.2498C-0.45169 35.9461 -0.0703815 41.8009 1.66607 47.3185C3.40252 52.8361 6.44298 57.8541 10.53 61.9475C10.9544 62.3574 11.5227 62.5841 12.1127 62.579C12.7026 62.5739 13.2669 62.3373 13.6841 61.9201C14.1013 61.5029 14.3379 60.9386 14.343 60.3486C14.3481 59.7587 14.1214 59.1904 13.7115 58.766C10.7852 55.8442 8.46509 52.3731 6.88429 48.552C5.3035 44.7309 4.49322 40.6352 4.5 36.5ZM56.8665 28.067C54.9043 23.2309 51.3225 19.2269 46.734 16.7402C42.1455 14.2534 36.8355 13.4385 31.7124 14.4347C26.5893 15.4309 21.9716 18.1764 18.6494 22.2015C15.3272 26.2265 13.5069 31.281 13.5 36.5C13.5 42.701 16.011 48.3215 20.07 52.3895C20.4938 52.8 21.0618 53.0276 21.6518 53.0233C22.2418 53.0191 22.8064 52.7832 23.2242 52.3666C23.642 51.9501 23.8794 51.386 23.8854 50.7961C23.8913 50.2061 23.6653 49.6374 23.256 49.2125C21.3649 47.3131 19.9219 45.0153 19.0323 42.4869C18.1427 39.9586 17.829 37.2635 18.1141 34.5984C18.3991 31.9333 19.2757 29.3655 20.68 27.0825C22.0842 24.7995 23.9805 22.8589 26.2305 21.4023C28.4805 19.9458 31.0274 19.0102 33.6852 18.6637C36.343 18.3172 39.0446 18.5687 41.5928 19.3997C44.1411 20.2307 46.4715 21.6203 48.4141 23.4671C50.3566 25.3138 51.8622 27.571 52.821 30.074C54.0468 29.1819 55.4146 28.5033 56.8665 28.067ZM27 36.5C27 34.1131 27.9482 31.8239 29.636 30.136C31.3239 28.4482 33.6131 27.5 36 27.5C38.387 27.5 40.6761 28.4482 42.364 30.136C44.0518 31.8239 45 34.1131 45 36.5C45 38.8869 44.0518 41.1761 42.364 42.864C40.6761 44.5518 38.387 45.5 36 45.5C33.6131 45.5 31.3239 44.5518 29.636 42.864C27.9482 41.1761 27 38.8869 27 36.5ZM36 32C34.8065 32 33.6619 32.4741 32.818 33.318C31.9741 34.1619 31.5 35.3065 31.5 36.5C31.5 37.6935 31.9741 38.8381 32.818 39.682C33.6619 40.5259 34.8065 41 36 41C37.1935 41 38.3381 40.5259 39.182 39.682C40.0259 38.8381 40.5 37.6935 40.5 36.5C40.5 35.3065 40.0259 34.1619 39.182 33.318C38.3381 32.4741 37.1935 32 36 32ZM69.75 41C69.75 43.3869 68.8018 45.6761 67.114 47.364C65.4261 49.0518 63.137 50 60.75 50C58.3631 50 56.0739 49.0518 54.386 47.364C52.6982 45.6761 51.75 43.3869 51.75 41C51.75 38.6131 52.6982 36.3239 54.386 34.636C56.0739 32.9482 58.3631 32 60.75 32C63.137 32 65.4261 32.9482 67.114 34.636C68.8018 36.3239 69.75 38.6131 69.75 41ZM76.5 61.25C76.5 66.8525 72 72.5 60.75 72.5C49.5 72.5 45 66.875 45 61.25C45 59.4598 45.7112 57.7429 46.977 56.477C48.2429 55.2112 49.9598 54.5 51.75 54.5H69.75C71.5402 54.5 73.2571 55.2112 74.523 56.477C75.7888 57.7429 76.5 59.4598 76.5 61.25Z" fill="#EFC862"/>
</svg>
