<svg width="68" height="50" viewBox="0 0 68 50" fill="none" xmlns="http://www.w3.org/2000/svg">
<path d="M50.875 11.9999H43.0525L47.9012 7.15117C48.2494 6.803 48.5256 6.38967 48.714 5.93477C48.9025 5.47986 48.9994 4.9923 48.9994 4.49992C48.9994 4.00754 48.9025 3.51998 48.714 3.06508C48.5256 2.61017 48.2494 2.19684 47.9012 1.84867C47.5531 1.50051 47.1397 1.22432 46.6848 1.0359C46.2299 0.84747 45.7424 0.750488 45.25 0.750488C44.7576 0.750488 44.2701 0.84747 43.8152 1.0359C43.3603 1.22432 42.9469 1.50051 42.5988 1.84867L28.6975 15.7499L42.5988 29.6512C42.9462 30.0006 43.3593 30.2779 43.8143 30.4672C44.2693 30.6564 44.7572 30.7538 45.25 30.7538C45.7428 30.7538 46.2307 30.6564 46.6857 30.4672C47.1407 30.2779 47.5538 30.0006 47.9012 29.6512C48.2498 29.3032 48.5263 28.8899 48.715 28.435C48.9036 27.9801 49.0008 27.4924 49.0008 26.9999C49.0008 26.5074 48.9036 26.0198 48.715 25.5648C48.5263 25.1099 48.2498 24.6966 47.9012 24.3487L43.0525 19.4999H50.875C56.0462 19.4999 60.25 24.5474 60.25 30.7499C60.25 36.9524 55.2025 41.9999 49 41.9999H19C12.7975 41.9999 7.75 36.9524 7.75 30.7499C7.75 24.5474 12.7975 19.4999 19 19.4999C19.9946 19.4999 20.9484 19.1048 21.6516 18.4016C22.3549 17.6983 22.75 16.7445 22.75 15.7499C22.75 14.7554 22.3549 13.8015 21.6516 13.0983C20.9484 12.395 19.9946 11.9999 19 11.9999C8.66125 11.9999 0.25 20.4112 0.25 30.7499C0.25 41.0887 8.66125 49.4999 19 49.4999H49C59.3387 49.4999 67.75 41.0887 67.75 30.7499C67.75 20.4112 60.1787 11.9999 50.875 11.9999Z" fill="#EFC862"/>
</svg>
