<svg width="80" height="76" viewBox="0 0 80 76" fill="none" xmlns="http://www.w3.org/2000/svg">
<path d="M14.1616 0.766846L10.2016 4.72122L16.0938 10.6106L20.0481 6.65622L14.1587 0.766846H14.1616ZM65.8412 0.766846L59.9491 6.65622L63.9062 10.6106L69.7956 4.72403L65.8384 0.766846H65.8412ZM40 2.52185C39.0719 2.5331 38.1325 2.58653 37.1875 2.70185C37.1594 2.70185 37.1313 2.69622 37.1031 2.70185C25.6956 4.00966 16.6169 13.2262 15.0391 24.5831C13.7791 33.7237 17.5478 42.0122 23.8281 47.3503C26.3971 49.5427 28.1347 52.5513 28.75 55.8722V72.7472H35.1625C36.1413 74.4262 37.9272 75.5597 40 75.5597C42.0728 75.5597 43.8587 74.4262 44.8375 72.7472H51.25V61.4972H51.5144V58.1559C51.5144 54.0328 53.6575 49.8759 57.1394 46.6443C61.7969 41.9812 65.3125 35.3578 65.3125 27.75C65.3125 13.8562 53.8769 2.39247 40 2.52185ZM40 8.14685C50.8703 7.99497 59.6875 16.8937 59.6875 27.75C59.6875 33.6393 56.9594 38.8256 53.1822 42.6L53.2722 42.69C49.5186 46.1513 47.0914 50.8147 46.4097 55.875H34.1078C33.4891 51.0543 31.4219 46.3884 27.5153 43.0415C22.5456 38.8228 19.5841 32.4665 20.5741 25.289C21.8031 16.4297 28.9919 9.3056 37.8006 8.32966C38.5279 8.22826 39.2603 8.16817 39.9944 8.14966L40 8.14685ZM0.625 27.75V33.375H9.0625V27.75H0.625ZM70.9375 27.75V33.375H79.375V27.75H70.9375ZM16.0938 50.5143L10.2044 56.4009L14.1616 60.3581L20.0453 54.4687L16.0938 50.5143ZM63.9062 50.5143L59.9519 54.4687L65.8384 60.3581L69.7956 56.4009L63.9062 50.5143ZM34.375 61.5H45.625V67.125H34.375V61.5Z" fill="#EFC862"/>
</svg>
