<svg width="84" height="80" viewBox="0 0 84 80" fill="none" xmlns="http://www.w3.org/2000/svg">
<path d="M83.25 50.25V61.5C83.25 63.375 81.9 64.8 80.1375 65.1376L72.75 57.75H75.75V54H69L68.25 53.25V46.5C68.25 36.1501 59.85 27.75 49.5 27.75H42.75L35.25 20.25H38.25V15.4875C36 14.2125 34.5 11.775 34.5 9.00005C34.5 4.87505 37.875 1.50005 42 1.50005C46.125 1.50005 49.5 4.87505 49.5 9.00005C49.5 11.775 48 14.2125 45.75 15.4875V20.25H49.5C64.0125 20.25 75.75 31.9876 75.75 46.5H79.5C81.5625 46.5 83.25 48.1875 83.25 50.25ZM28.875 44.625C24.75 44.625 21.375 48 21.375 52.125C21.375 56.25 24.75 59.625 28.875 59.625C33 59.625 36.375 56.2876 36.375 52.125C36.375 47.9626 33.0375 44.625 28.875 44.625ZM79.9125 74.475L75.15 79.2375L71.5875 75.6751C70.575 76.2001 69.45 76.5001 68.25 76.5001H15.75C13.7609 76.5001 11.8532 75.7099 10.4467 74.3034C9.04018 72.8968 8.25 70.9892 8.25 69.0001V65.2501H4.5C2.4375 65.2501 0.75 63.5625 0.75 61.5V50.25C0.75 48.1875 2.4375 46.5 4.5 46.5H8.25C8.25 37.2375 13.0875 29.1 20.325 24.4125L1.1625 5.25005L5.9625 0.487549L79.9125 74.475ZM64.9125 69.0001L55.5 59.625H55.125C53.1359 59.625 51.2282 58.8349 49.8217 57.4283C48.4152 56.0218 47.625 54.1142 47.625 52.125V51.75L25.875 29.9625C19.875 33.0751 15.75 39.3 15.75 46.5V54H8.25V57.75H15.75V69.0001H64.9125Z" fill="#EFC862"/>
</svg>
