<svg width="90" height="90" viewBox="0 0 90 90" fill="none" xmlns="http://www.w3.org/2000/svg">
<path d="M83.0566 36.2109H60.5566C60.1699 36.2109 59.8535 36.5273 59.8535 36.9141V41.1328C59.8535 41.5195 60.1699 41.8359 60.5566 41.8359H83.0566C83.4434 41.8359 83.7598 41.5195 83.7598 41.1328V36.9141C83.7598 36.5273 83.4434 36.2109 83.0566 36.2109ZM71.2793 48.1641H60.5566C60.1699 48.1641 59.8535 48.4805 59.8535 48.8672V53.0859C59.8535 53.4727 60.1699 53.7891 60.5566 53.7891H71.2793C71.666 53.7891 71.9824 53.4727 71.9824 53.0859V48.8672C71.9824 48.4805 71.666 48.1641 71.2793 48.1641ZM41.9502 28.3447H38.1445C37.5996 28.3447 37.1602 28.7842 37.1602 29.3291V51.126C37.1602 51.4424 37.3096 51.7324 37.5645 51.917L50.6514 61.4619C51.0908 61.7783 51.7061 61.6904 52.0225 61.251L54.2812 58.166V58.1572C54.5977 57.7178 54.501 57.1025 54.0615 56.7861L42.9258 48.7354V29.3291C42.9346 28.7842 42.4863 28.3447 41.9502 28.3447Z" fill="#EFC862"/>
<path d="M70.7344 59.2295H65.6543C65.1621 59.2295 64.6963 59.4844 64.4326 59.9062C63.3164 61.6728 62.0156 63.3076 60.5215 64.8018C57.9463 67.3769 54.9492 69.3984 51.6182 70.8047C48.1641 72.2637 44.499 73.0019 40.7197 73.0019C36.9316 73.0019 33.2666 72.2637 29.8213 70.8047C26.4902 69.3984 23.4932 67.3769 20.918 64.8018C18.3428 62.2266 16.3213 59.2295 14.915 55.8984C13.4561 52.4531 12.7178 48.7881 12.7178 45C12.7178 41.2119 13.4561 37.5557 14.915 34.1016C16.3213 30.7705 18.3428 27.7734 20.918 25.1982C23.4932 22.623 26.4902 20.6016 29.8213 19.1953C33.2666 17.7363 36.9404 16.998 40.7197 16.998C44.5078 16.998 48.1728 17.7363 51.6182 19.1953C54.9492 20.6016 57.9463 22.623 60.5215 25.1982C62.0156 26.6924 63.3164 28.3271 64.4326 30.0937C64.6963 30.5156 65.1621 30.7705 65.6543 30.7705H70.7344C71.3408 30.7705 71.7275 30.1377 71.4551 29.6016C65.7246 18.2021 54.1055 10.793 41.1328 10.6436C22.1396 10.4062 6.36328 25.9541 6.32812 44.9297C6.29297 63.9404 21.7002 79.3652 40.7109 79.3652C53.8506 79.3652 65.6631 71.9297 71.4551 60.3984C71.7275 59.8623 71.332 59.2295 70.7344 59.2295Z" fill="#EFC862"/>
</svg>
